# AST/ASF file generated using VICON BodyLanguage
# -----------------------------------------------
:version 1.10
:name VICON
:units
  mass 1.0
  length 0.45
  angle deg
:documentation
   .ast/.asf automatically generated from VICON data using
   VICON BodyBuilder and BodyLanguage model FoxedUp or BRILLIANT.MOD
:root
   order TX TY TZ RX RY RZ
   axis XYZ
   position 0 0 0  
   orientation 0 0 0 
:bonedata
  begin
     id 1 
     name lhipjoint
     direction 0.734343 -0.627749 0.258209 
     length 2.5437 
     axis 0 0 0  XYZ
  end
  begin
     id 2 
     name lfemur
     direction 0.34202 -0.939693 0  
     length 6.7391  
     axis 0 0 20  XYZ
    dof rx ry rz
    limits (-160.0 20.0)
           (-70.0 70.0)
           (-60.0 70.0)
  end
  begin
     id 3 
     name ltibia
     direction 0.34202 -0.939693 0   
     length 7.21536   
     axis 0 0 20   XYZ
    dof rx
    limits (-10.0 170.0)
  end
  begin
     id 4 
     name lfoot
     direction 0.0489572 -0.134509 0.989702   
     length 1.61313   
     axis -90 7.62852e-016 20   XYZ
    dof rx rz
    limits (-45.0 90.0)
           (-70.0 20.0)
  end
  begin
     id 5 
     name ltoes
     direction 1.53451e-011 -4.21692e-011 1   
     length 0.823104   
     axis -90 7.62852e-016 20   XYZ
    dof rx
    limits (-90.0 20.0)
  end
  begin
     id 6 
     name rhipjoint
     direction -0.746398 -0.615468 0.253157   
     length 2.59446  
     axis 0 0 0  XYZ 
  end
  begin
     id 7 
     name rfemur
     direction -0.34202 -0.939693 0   
     length 6.7075   
     axis 0 0 -20   XYZ
    dof rx ry rz
    limits (-160.0 20.0)
           (-70.0 70.0)
           (-70.0 60.0)
  end
  begin
     id 8 
     name rtibia
     direction -0.34202 -0.939693 0   
     length 7.27262   
     axis 0 0 -20   XYZ
    dof rx
    limits (-10.0 170.0)
 end
 begin
     id 9 
     name rfoot
     direction -0.0455203 -0.125066 0.991104   
     length 1.91095  
     axis -90 -7.62852e-016 -20   XYZ
    dof rx rz
    limits (-45.0 90.0)
           (-20.0 70.0)
  end
  begin
     id 10 
     name rtoes
     direction -1.53601e-011 -4.21913e-011 1   
     length 0.969037   
     axis -90 -7.62852e-016 -20   XYZ
    dof rx
    limits (-90.0 20.0)
  end
  begin
     id 11 
     name lowerback
     direction 0.0181546 0.999122 -0.0377542   
     length 1.99916   
     axis 0 0 0   XYZ
    dof rx ry rz
    limits (-20.0 45.0)
           (-30.0 30.0)
           (-30.0 30.0)
  end
  begin
     id 12 
     name upperback
     direction 0.0203486 0.99589 0.0882534   
     length 1.951   
     axis 0 0 0   XYZ
    dof rx ry rz
    limits (-20.0 45.0)
           (-30.0 30.0)
           (-30.0 30.0)
  end
  begin
     id 13 
     name thorax
     direction 0.0131685 0.994241 0.106355   
     length 1.97461   
     axis 0 0 0   XYZ
    dof rx ry rz
    limits (-20.0 45.0)
           (-30.0 30.0)
           (-30.0 30.0)
  end
  begin
     id 14 
     name lowerneck
     direction -0.0281395 0.999325 0.023617   
     length 1.7959   
     axis 0 0 0   XYZ
    dof rx ry rz
    limits (-20.0 45.0)
           (-30.0 30.0)
           (-30.0 30.0)
  end
  begin
     id 15 
     name upperneck
     direction 0.0288721 0.991984 -0.123019   
     length 1.79917   
     axis 0 0 0   XYZ
    dof rx ry rz
    limits (-20.0 45.0)
           (-30.0 30.0)
           (-30.0 30.0)
  end
  begin
     id 16
     name head
     direction 0.0133797 0.998944 -0.0439492  
     length 1.80902  
     axis 0 0 0   XYZ
    dof rx ry rz
    limits (-20.0 45.0)
           (-30.0 30.0)
           (-30.0 30.0)
  end
  begin
     id 17 
     name lclavicle
     direction 0.919195 0.377107 0.113449  
     length 3.17815  
     axis 0 0 0   XYZ
    dof ry rz
    limits (-20.0 10.0)
           (0.0 20.0)
  end
  begin
     id 18 
     name lhumerus
     direction 1 -4.48959e-011 2.13129e-027   
     length 4.84137   
     axis 180 -30 -90   XYZ
    dof rx ry rz
    limits (-60.0 90.0)
           (-90.0 90.0)
           (-90.0 90.0)
  end
  begin
     id 19
     name lradius
     direction 1 -4.48957e-011 -6.30627e-028   
     length 3.2452   
     axis 180 -30 -90   XYZ
    dof rx
    limits (-10.0 170.0)
  end
  begin
     id 20
     name lwrist
     direction 1 -4.4901e-011 9.13299e-027   
     length 1.6226   
     axis -6.84618e-015 90 90   XYZ
    dof ry
    limits (-180.0 0.0)
 end
  begin
     id 21 
     name lhand
     direction 1 -4.48816e-011 1.82293e-026   
     length 0.521221   
     axis -1.16502e-014 90 90   XYZ
    dof rx rz
    limits (-90.0 90.0)
           (-45.0 45.0)
  end
  begin
     id 22 
     name lfingers
     direction 1 -4.49108e-011 3.65687e-026   
     length 0.420221   
     axis -2.33008e-014 90 90   XYZ
    dof rx
    limits (0.0 90.0)
  end
  begin
     id 23
     name lthumb
     direction 0.707107 -6.34943e-011 0.707107   
     length 0.603356   
     axis -90 45 5.69224e-014   XYZ
    dof rx rz
    limits (-45.0 45.0)
           (-45.0 45.0)
  end
  begin
     id 24 
     name rclavicle
     direction -0.90847 0.38596 0.160368   
     length 3.12973  
     axis 0 0 0   XYZ 
    dof ry rz
    limits (-10.0 20.0)
           (-20.0 0.0)
  end
  begin
     id 25 
     name rhumerus
     direction -1 -4.48974e-011 4.47268e-028  
     length 4.72284   
     axis 180 30 90   XYZ
    dof rx ry rz
    limits (-90.0 60.0)
           (-90.0 90.0)
           (-90.0 90.0)
  end
  begin
     id 26 
     name rradius
     direction -1 -4.48969e-011 3.43203e-027   
     length 3.23459   
     axis 180 30 90   XYZ
    dof rx
    limits (-10.0 170.0)
  end
  begin
     id 27 
     name rwrist
     direction -1 -4.48969e-011 9.12911e-027   
     length 1.6173   
     axis -6.84618e-015 -90 -90   XYZ
    dof ry
    limits (-180.0 0.0)
  end
  begin
     id 28
     name rhand
     direction -1 -4.49194e-011 1.83006e-026   
     length 0.307416   
     axis -1.16502e-014 -90 -90   XYZ
    dof rx rz
    limits (-90.0 90.0)
           (-45.0 45.0)
  end
  begin
     id 29
     name rfingers
     direction -1 -4.48423e-011 3.63103e-026   
     length 0.247847   
     axis -2.33008e-014 -90 -90   XYZ
    dof rx
    limits (0.0 90.0)
  end
  begin
     id 30
     name rthumb
     direction -0.707107 -6.34802e-011 0.707107   
     length 0.35586   
     axis -90 -45 -5.69224e-014   XYZ
    dof rx rz
    limits (-45.0 45.0)
           (-45.0 45.0)
  end
:hierarchy
  begin
    root lhipjoint rhipjoint lowerback
    lhipjoint lfemur
    lfemur ltibia
    ltibia lfoot
    lfoot ltoes
    rhipjoint rfemur
    rfemur rtibia
    rtibia rfoot
    rfoot rtoes
    lowerback upperback
    upperback thorax
    thorax lowerneck lclavicle rclavicle
    lowerneck upperneck
    upperneck head
    lclavicle lhumerus
    lhumerus lradius
    lradius lwrist
    lwrist lhand lthumb
    lhand lfingers
    rclavicle rhumerus
    rhumerus rradius
    rradius rwrist
    rwrist rhand rthumb
    rhand rfingers
  end

#!OML:ASF H:\Terrain\Patient Classification 1\Animal1\Tuesday\Animal1.ASF
:FULLY-SPECIFIED
:DEGREES
363
root 10.829 14.1098 -17.2887 24.8782 0.127269 1.62457
lowerback 19.5263 -1.34675 0.30531
upperback 12.3108 -1.66487 1.25654
thorax 2.4079 -0.8594 1.44069
lowerneck -5.72589 0.741205 -3.36376
upperneck -18.1967 1.7905 5.02719
head -4.58784 0.852079 2.08662
rclavicle 8.34896e-015 -3.77691e-015
rhumerus 7.64163 57.7124 18.1016
rradius 98.0116
rwrist -81.1805
rhand -7.15658 18.7649
rfingers 7.12502
rthumb 18.7202 -10.3543
lclavicle 8.34896e-015 -3.77691e-015
lhumerus 3.79218 -60.2541 -8.76875
lradius 106.184
lwrist 32.6115
lhand 4.7771 51.5547
lfingers 7.12502
lthumb 30.1573 79.1134
rfemur -72.6662 -10.2324 17.2314
rtibia 67.6051
rfoot -15.5507 -13.9266
rtoes -7.56801
lfemur -68.5451 12.0823 -14.5836
ltibia 62.6803
lfoot -21.3216 -7.74304
ltoes -18.7232
364
root 10.8308 14.1176 -17.2922 24.8745 0.227202 1.78172
lowerback 19.5614 -1.40254 0.228821
upperback 12.3157 -1.74549 1.24635
thorax 2.39981 -0.902627 1.48743
lowerneck -5.75048 0.765464 -3.49227
upperneck -18.2549 1.84269 5.11921
head -4.60535 0.882066 2.13629
rclavicle 2.06736e-014 -1.56046e-014
rhumerus 7.77815 57.6127 18.4102
rradius 97.4076
rwrist -81.0765
rhand -6.91195 18.4632
rfingers 7.12502
rthumb 18.9555 -10.6332
lclavicle 2.06736e-014 -1.56046e-014
lhumerus 3.28393 -60.0118 -8.35958
lradius 105.374
lwrist 31.7038
lhand 4.93313 52.6995
lfingers 7.12502
lthumb 30.3062 80.2309
rfemur -72.6457 -10.4045 17.1082
rtibia 67.5871
rfoot -15.4658 -14.1552
rtoes -8.66435
lfemur -68.5022 11.9209 -14.728
ltibia 62.5849
lfoot -21.2391 -7.83104
ltoes -18.5547
365
root 10.8333 14.1234 -17.2944 24.9353 0.22568 1.88266
lowerback 19.4412 -1.44222 0.150864
upperback 12.3362 -1.80936 1.21123
thorax 2.48561 -0.937452 1.50124
lowerneck -5.69453 0.812706 -3.61102
upperneck -18.3283 1.92454 5.20611
head -4.64201 0.925279 2.18164
rclavicle -1.76918e-014 1.85864e-014
rhumerus 8.33996 57.3415 19.0958
rradius 97.0162
rwrist -81.2592
rhand -6.68586 17.3698
rfingers 7.12502
rthumb 19.1729 -11.7051
lclavicle -1.76918e-014 1.85864e-014
lhumerus 2.87247 -59.8211 -8.1102
lradius 104.643
lwrist 30.576
lhand 5.28202 54.0252
lfingers 7.12502
lthumb 30.6389 81.4949
rfemur -72.6984 -10.4745 17.0297
rtibia 67.5749
rfoot -15.4508 -14.3923
rtoes -9.38661
lfemur -68.5335 11.8959 -14.8642
ltibia 62.5116
lfoot -21.2049 -7.88963
ltoes -18.7227
366
root 10.8333 14.1234 -17.2985 25.0305 0.250968 1.85296
lowerback 19.3262 -1.46643 0.263146
upperback 12.3399 -1.82552 1.1633
thorax 2.54238 -0.937133 1.38662
lowerneck -5.75778 0.818488 -3.53644
upperneck -18.277 1.92172 5.1388
head -4.61505 0.923854 2.1481
rclavicle -6.95746e-016 6.55989e-015
rhumerus 7.7834 57.3796 18.4557
rradius 96.6963
rwrist -80.7248
rhand -6.97314 17.2046
rfingers 7.12502
rthumb 18.8967 -11.8975
lclavicle -6.95746e-016 6.55989e-015
lhumerus 2.50667 -59.7097 -7.98704
lradius 104.214
lwrist 29.2441
lhand 5.36126 55.5032
lfingers 7.12502
lthumb 30.7145 82.9587
rfemur -72.7777 -10.4179 17.0428
rtibia 67.5549
rfoot -15.3728 -14.5808
rtoes -9.85742
lfemur -68.6632 11.9136 -14.8576
ltibia 62.4699
lfoot -21.2717 -7.95081
ltoes -18.9014
367
root 10.8315 14.1187 -17.306 25.048 0.357738 1.82621
lowerback 19.4974 -1.50264 0.507501
upperback 12.3 -1.83223 1.05405
thorax 2.40043 -0.921048 1.13959
lowerneck -5.86306 0.787772 -3.37955
upperneck -18.2746 1.88601 5.18069
head -4.59439 0.895224 2.13629
rclavicle -6.16232e-015 9.93923e-017
rhumerus 7.77732 57.5904 18.6164
rradius 96.8145
rwrist -80.4771
rhand -7.56264 17.4653
rfingers 7.12502
rthumb 18.3296 -11.6911
lclavicle -6.16232e-015 9.93923e-017
lhumerus 2.55559 -59.7151 -8.4178
lradius 104.03
lwrist 28.072
lhand 5.40338 57.0383
lfingers 7.12502
lthumb 30.7546 84.4863
rfemur -72.7877 -10.3955 17.0505
rtibia 67.529
rfoot -15.1879 -14.6688
rtoes -10.1429
lfemur -68.747 11.8282 -14.7699
ltibia 62.4455
lfoot -21.1651 -8.03147
ltoes -17.8916
368
root 10.8289 14.1154 -17.3127 25.0476 0.405025 1.81806
lowerback 19.5344 -1.42839 0.393101
upperback 12.3272 -1.75297 1.17172
thorax 2.41833 -0.893047 1.31611
lowerneck -5.68505 0.787531 -3.4179
upperneck -18.5111 1.88279 5.11704
head -4.69632 0.895353 2.12331
rclavicle -1.98785e-016 -1.21259e-014
rhumerus 6.96041 57.8393 18.1568
rradius 97.0902
rwrist -79.7484
rhand -8.06883 17.6977
rfingers 7.12502
rthumb 17.8426 -11.5038
lclavicle -1.98785e-016 -1.21259e-014
lhumerus 2.51065 -59.7091 -8.43548
lradius 103.91
lwrist 26.9976
lhand 5.11379 58.4827
lfingers 7.12502
lthumb 30.4785 85.9823
rfemur -72.8053 -10.3709 17.0652
rtibia 67.5113
rfoot -15.1167 -14.6495
rtoes -9.8522
lfemur -68.7923 11.7904 -14.7333
ltibia 62.416
lfoot -21.0536 -7.88128
ltoes -18.0538
369
root 10.8286 14.1154 -17.313 25.0899 0.350664 1.86788
lowerback 19.6339 -1.459 0.45386
upperback 12.2402 -1.78148 1.02671
thorax 2.26554 -0.897222 1.13675
lowerneck -5.86698 0.821025 -3.3522
upperneck -18.2584 1.93927 5.22524
head -4.59103 0.918498 2.14426
rclavicle -1.37161e-014 2.3556e-014
rhumerus 6.58163 58.0991 17.9
rradius 97.6939
rwrist -79.7472
rhand -7.92001 17.7864
rfingers 7.12502
rthumb 17.9858 -11.402
lclavicle -1.37161e-014 2.3556e-014
lhumerus 2.37102 -59.9274 -8.69365
lradius 103.865
lwrist 25.8202
lhand 4.44722 59.6432
lfingers 7.12502
lthumb 29.8426 87.2589
rfemur -72.8629 -10.3527 17.0142
rtibia 67.4996
rfoot -15.1428 -14.4726
rtoes -9.27932
lfemur -68.8335 11.8112 -14.8235
ltibia 62.3944
lfoot -21.1146 -7.82206
ltoes -18.7067
370
root 10.8307 14.1223 -17.3097 25.0962 0.31463 1.87949
lowerback 19.5304 -1.44593 0.432665
upperback 12.2689 -1.77021 1.02732
thorax 2.34954 -0.893156 1.14428
lowerneck -6.0004 0.819798 -3.35099
upperneck -18.0958 1.92935 5.19182
head -4.51882 0.918431 2.13365
rclavicle -3.44891e-014 3.38928e-014
rhumerus 7.93759 57.8903 20.3804
rradius 99.1363
rwrist -81.4302
rhand -7.24788 17.6105
rfingers 7.12502
rthumb 18.6324 -11.5171
lclavicle -3.44891e-014 3.38928e-014
lhumerus 2.0626 -60.0643 -8.54548
lradius 103.846
lwrist 24.8577
lhand 3.58077 59.9333
lfingers 7.12502
lthumb 29.0154 87.6944
rfemur -72.8321 -10.3409 16.9718
rtibia 67.4628
rfoot -15.1626 -14.3598
rtoes -9.10334
lfemur -68.7828 11.8167 -14.8489
ltibia 62.3692
lfoot -21.1451 -8.0529
ltoes -17.8705
371
root 10.8333 14.127 -17.3089 25.1031 0.314026 1.81989
lowerback 19.4407 -1.42241 0.566004
upperback 12.2976 -1.72257 1.01672
thorax 2.42109 -0.861788 1.04722
lowerneck -6.04247 0.794471 -3.30619
upperneck -18.0276 1.88383 5.13372
head -4.48847 0.896997 2.10881
rclavicle 1.31198e-014 -8.15017e-015
rhumerus 7.80494 58.0522 20.5344
rradius 100.028
rwrist -81.8947
rhand -6.76754 17.769
rfingers 7.12502
rthumb 19.0944 -11.3137
lclavicle 1.31198e-014 -8.15017e-015
lhumerus 1.91721 -60.0733 -8.55784
lradius 103.986
lwrist 24.2044
lhand 3.27852 59.9636
lfingers 7.12502
lthumb 28.7267 87.774
rfemur -72.8213 -10.3137 17.0152
rtibia 67.4262
rfoot -15.0301 -14.5859
rtoes -10.1133
lfemur -68.7543 11.8479 -14.8144
ltibia 62.3525
lfoot -21.1055 -8.11075
ltoes -17.4496
372
root 10.8333 14.1241 -17.3123 25.1994 0.274519 1.82162
lowerback 19.297 -1.37017 0.521857
upperback 12.3006 -1.66492 1.0455
thorax 2.49788 -0.837068 1.08933
lowerneck -5.9648 0.775122 -3.34011
upperneck -18.0742 1.84928 5.07343
head -4.51395 0.88364 2.09624
rclavicle -7.15625e-015 7.15625e-015
rhumerus 6.69276 58.5912 19.0313
rradius 100.539
rwrist -81.0654
rhand -6.94551 18.5432
rfingers 7.12502
rthumb 18.9232 -10.5563
lclavicle -7.15625e-015 7.15625e-015
lhumerus 1.75583 -60.0107 -8.48903
lradius 104.337
lwrist 23.7503
lhand 3.7752 60.3589
lfingers 7.12502
lthumb 29.2011 88.0879
rfemur -72.9877 -10.2706 17.035
rtibia 67.4582
rfoot -14.9396 -14.7379
rtoes -10.5403
lfemur -68.859 11.9165 -14.8689
ltibia 62.3418
lfoot -21.0475 -8.18283
ltoes -17.0274
